<svg xmlns="http://www.w3.org/2000/svg" viewBox="0 0 64 64" role="img" aria-label="FPVOOE drone shield">
  <defs>
    <linearGradient id="bg" x1="5" x2="59" y1="7" y2="57" gradientUnits="userSpaceOnUse">
      <stop stop-color="#071827"/>
      <stop offset=".48" stop-color="#15124a"/>
      <stop offset="1" stop-color="#34122f"/>
    </linearGradient>
    <linearGradient id="shield" x1="15" x2="49" y1="8" y2="58" gradientUnits="userSpaceOnUse">
      <stop stop-color="#49f6ff"/>
      <stop offset=".52" stop-color="#8b5cff"/>
      <stop offset="1" stop-color="#ff4fd8"/>
    </linearGradient>
    <filter id="glow" x="-40%" y="-40%" width="180%" height="180%">
      <feGaussianBlur stdDeviation="1.8" result="blur"/>
      <feMerge>
        <feMergeNode in="blur"/>
        <feMergeNode in="SourceGraphic"/>
      </feMerge>
    </filter>
  </defs>

  <rect width="64" height="64" rx="12" fill="url(#bg)"/>
  <path d="M13 9h38l4 7v22c0 10.5-8.9 17.3-23 22C17.9 55.3 9 48.5 9 38V16l4-7Z" fill="#0b1024" stroke="#1c3f62" stroke-width="2"/>
  <path d="M16.2 13h31.6l3.2 5.2v19.3c0 8.4-7.2 13.9-19 18-11.8-4.1-19-9.6-19-18V18.2L16.2 13Z" fill="none" stroke="url(#shield)" stroke-width="2.2" filter="url(#glow)"/>

  <path d="M9 43 56 23M14 49 61 31M3 36l15-6" stroke="#58f7ff" stroke-width="1.5" stroke-linecap="round" opacity=".85" filter="url(#glow)"/>
  <path d="M24 22h16" stroke="#ff4fd8" stroke-width="3" stroke-linecap="round" opacity=".9"/>
  <text x="32" y="21" text-anchor="middle" font-family="Arial Black, Impact, sans-serif" font-size="8.5" font-weight="900" fill="#f4e7ff" stroke="#8c42ff" stroke-width=".6" paint-order="stroke" transform="skewX(-8)">#FPVOOE</text>

  <g filter="url(#glow)">
    <circle cx="22" cy="35" r="8.2" fill="none" stroke="#75f8ff" stroke-width="2" opacity=".9"/>
    <circle cx="42" cy="35" r="8.2" fill="none" stroke="#ff59dc" stroke-width="2" opacity=".9"/>
    <circle cx="32" cy="34" r="6.5" fill="#24264f" stroke="#d8f8ff" stroke-width="1.2"/>
    <circle cx="32" cy="34" r="2.1" fill="#ff4fd8"/>
    <path d="M25.7 34.5h12.6M32 27.5v13.8M17.5 35h29" stroke="#d8f8ff" stroke-width="2" stroke-linecap="round"/>
    <path d="M17.3 35.2c2.5-2.1 6.7-2.1 9.4 0M37.3 35.2c2.5-2.1 6.7-2.1 9.4 0" stroke="#0b1024" stroke-width="1.7" stroke-linecap="round"/>
    <path d="M27 43h10l-5 5.5-5-5.5Z" fill="#4ef5ff" opacity=".72"/>
  </g>

  <path d="M7 14h10M47 8h8M52 51h5M5 26h7" stroke="#55eeff" stroke-width="1" opacity=".45"/>
</svg>
